<?xml version="1.0" encoding="utf-8"?>
<!-- Generator: Adobe Illustrator 26.4.1, SVG Export Plug-In . SVG Version: 6.00 Build 0)  -->
<svg version="1.1" id="レイヤー_1" xmlns="http://www.w3.org/2000/svg" xmlns:xlink="http://www.w3.org/1999/xlink" x="0px"
	 y="0px" viewBox="0 0 1920 1080" style="enable-background:new 0 0 1920 1080;" xml:space="preserve">
<style type="text/css">
	.st0{fill:#FFFFFF;}
	.st1{fill:none;stroke:#000000;stroke-width:10;}
	.st2{font-family:'HiraginoSans-W6-83pv-RKSJ-H';}
	.st3{font-size:50px;}
	.st4{fill:none;stroke:#000000;}
	.st5{font-family:'Silom';}
	.st6{fill:#C40000;}
	.st7{font-size:172px;}
	.st8{fill:#009EC4;}
	.st9{font-size:130px;}
	.st10{fill:none;stroke:#FF0000;stroke-width:10;}
	.st11{font-size:177px;}
</style>
<g id="長方形_1" transform="translate(465 338)">
	<rect y="-1" class="st0" width="1455" height="202"/>
	<rect x="5" y="4" class="st1" width="1445" height="192"/>
</g>
<text transform="matrix(1 0 0 1 511.3833 422.375)" class="st2 st3">チケットを購入しました。</text>
<text transform="matrix(1 0 0 1 511.3833 422.375)" class="st4 st2 st3">チケットを購入しました。</text>
<text transform="matrix(1 0 0 1 1111.3833 422.375)" class="st5 st3">1</text>
<text transform="matrix(1 0 0 1 1111.3833 422.375)" class="st4 st5 st3">1</text>
<text transform="matrix(1 0 0 1 1144.7329 422.375)" class="st2 st3">週間以内にご入金してください。</text>
<text transform="matrix(1 0 0 1 1144.7329 422.375)" class="st4 st2 st3">週間以内にご入金してください。</text>
<text transform="matrix(1 0 0 1 511.3833 507.375)" class="st2 st3">今後の、ご利用もよろしくお願いします。</text>
<text transform="matrix(1 0 0 1 511.3833 507.375)" class="st4 st2 st3">今後の、ご利用もよろしくお願いします。</text>
<g id="長方形_2" transform="translate(0 540)">
	<rect class="st0" width="1920" height="540"/>
	<rect x="5" y="5" class="st1" width="1910" height="530"/>
</g>
<text transform="matrix(1 0 0 1 191.3833 762.375)" class="st6 st2 st7">チケット通販</text>
<text transform="matrix(1 0 0 1 191.3833 762.375)" class="st4 st2 st7">チケット通販</text>
<text transform="matrix(1 0 0 1 1223.3833 762.375)" class="st6 st5 st7">.com</text>
<text transform="matrix(1 0 0 1 1223.3833 762.375)" class="st4 st5 st7">.com</text>
<text transform="matrix(1 0 0 1 144.3833 988.375)" class="st8 st2 st9">いろいろなチケットを販売中</text>
<text transform="matrix(1 0 0 1 144.3833 988.375)" class="st4 st2 st9">いろいろなチケットを販売中</text>
<g id="長方形_3">
	<rect width="465" height="540"/>
	<rect x="5" y="5" class="st10" width="455" height="530"/>
</g>
<text transform="matrix(1 0 0 1 119.3833 189.375)" class="st0 st2 st9">購入</text>
<text transform="matrix(1 0 0 1 119.3833 189.375)" class="st4 st2 st9">購入</text>
<text transform="matrix(1 0 0 1 119.3833 410.375)" class="st0 st2 st9">完了</text>
<text transform="matrix(1 0 0 1 119.3833 410.375)" class="st4 st2 st9">完了</text>
<g id="長方形_4" transform="translate(465)">
	<rect class="st0" width="1455" height="338"/>
	<rect x="5" y="5" class="st1" width="1445" height="328"/>
</g>
<text transform="matrix(1 0 0 1 480.3833 133.375)" class="st2 st9">チケット料</text>
<text transform="matrix(1 0 0 1 480.3833 133.375)" class="st4 st2 st9">チケット料</text>
<text transform="matrix(1 0 0 1 1052.3833 308.375)" class="st5 st11">45,000</text>
<text transform="matrix(1 0 0 1 1052.3833 308.375)" class="st4 st5 st11">45,000</text>
<text transform="matrix(1 0 0 1 1701.6111 309.2609)" class="st2 st11">円</text>
<text transform="matrix(1 0 0 1 1701.6111 309.2609)" class="st4 st2 st11">円</text>
</svg>
